<svg width="28" height="28" viewBox="0 0 28 28" fill="none" xmlns="http://www.w3.org/2000/svg">
  <path fill="black" fill-rule="evenodd" d="M7.25 6.25C5.593 6.25 4.25 7.593 4.25 9.25v1.5c0 1.657 1.343 3 3 3h3.5c1.657 0 3-1.343 3-3v-.25h2.5v.25c0 1.657 1.343 3 3 3h1.5v2.5h-1.5c-1.657 0-3 1.343-3 3v1.5c0 1.657 1.343 3 3 3h1.5c1.657 0 3-1.343 3-3v-1.5c0-1.657-1.343-3-3-3h-1.5v-2.5h1.5c1.657 0 3-1.343 3-3v-1.5c0-1.657-1.343-3-3-3h-1.5c-1.657 0-3 1.343-3 3v.25h-2.5v-.25c0-1.657-1.343-3-3-3h-3.5Zm0 2.5h3.5a.5.5 0 0 1 .5.5v1.5a.5.5 0 0 1-.5.5h-3.5a.5.5 0 0 1-.5-.5v-1.5a.5.5 0 0 1 .5-.5Zm12 0h1.5a.5.5 0 0 1 .5.5v1.5a.5.5 0 0 1-.5.5h-1.5a.5.5 0 0 1-.5-.5v-1.5a.5.5 0 0 1 .5-.5Zm0 10h1.5a.5.5 0 0 1 .5.5v1.5a.5.5 0 0 1-.5.5h-1.5a.5.5 0 0 1-.5-.5v-1.5a.5.5 0 0 1 .5-.5Z"/>
  <path fill="black" d="M7.25 15.5h5.8l-1.275-1.275a1.25 1.25 0 1 1 1.768-1.768l3.408 3.408c.488.488.488 1.28 0 1.768l-3.408 3.408a1.25 1.25 0 0 1-1.768-1.768L13.05 18H7.25a1.25 1.25 0 1 1 0-2.5Z"/>
</svg>
